<svg version="1.1" id="Capa_1" xmlns="http://www.w3.org/2000/svg" xmlns:xlink="http://www.w3.org/1999/xlink" x="0" y="0" viewBox="0 0 33.4 19.6" xml:space="preserve"><style></style><g id="UNITED_KINGDOM_3_"><defs><path id="SVGID_5_" d="M-.1 0h33.6v19.6H-.1z"/></defs><clipPath id="SVGID_2_"><use xlink:href="#SVGID_5_" overflow="visible"/></clipPath><path clip-path="url(#SVGID_2_)" fill="#fff" d="M-.1 0h33.6v19.6H-.1z"/><path clip-path="url(#SVGID_2_)" fill="#bd0034" d="M22.4 7.1L33.5.9V0h-.8L20.1 7.1zM21.9 12.9l11.6 6.5v-1.3l-9.3-5.2zM-.1 1.5l10 5.6h2.3L-.1.2zM11.7 12.9L-.1 19.5v.1H2l12-6.7z"/><path clip-path="url(#SVGID_2_)" fill="#1a237b" d="M31.2 0H19.4v6.6zM14.3 0H2.5l11.8 6.6zM33.5 7.1V2.6l-8 4.5zM33.5 17.4v-4.5h-8zM3.2 19.6h11.1v-6.2zM19.4 19.6h11.1l-11.1-6.2zM-.1 12.9v4.7l8.3-4.7zM-.1 7.1h8.3L-.1 2.5z"/><path clip-path="url(#SVGID_2_)" fill="#bd0034" d="M15.3 0v8.3H-.1v3.5h15.4v7.8h3.1v-7.8h15.1V8.3H18.4V0z"/></g></svg>