<?xml version="1.0" encoding="utf-8"?>
<!-- Generator: Adobe Illustrator 22.0.1, SVG Export Plug-In . SVG Version: 6.00 Build 0)  -->
<svg version="1.1" id="Capa_1" xmlns="http://www.w3.org/2000/svg" xmlns:xlink="http://www.w3.org/1999/xlink" x="0px" y="0px"
	 viewBox="0 0 993.8 808.2" style="enable-background:new 0 0 993.8 808.2;" xml:space="preserve">
<style type="text/css">
	.st0{clip-path:url(#SVGID_2_);fill:url(#SVGID_3_);}
	.st1{fill:#413F92;}
	.st2{opacity:0.3;}
	.st3{clip-path:url(#SVGID_5_);fill:#1F2733;}
	.st4{clip-path:url(#SVGID_7_);fill:url(#SVGID_8_);}
	.st5{clip-path:url(#SVGID_10_);fill:url(#SVGID_11_);}
	.st6{fill:none;stroke:#1F2733;stroke-width:2;stroke-linecap:round;stroke-linejoin:round;stroke-miterlimit:10;}
	.st7{clip-path:url(#SVGID_13_);fill:url(#SVGID_14_);}
	.st8{clip-path:url(#SVGID_16_);fill:url(#SVGID_17_);}
	.st9{clip-path:url(#SVGID_19_);fill:url(#SVGID_20_);}
	.st10{clip-path:url(#SVGID_22_);fill:url(#SVGID_23_);}
	.st11{clip-path:url(#SVGID_25_);fill:#1F2733;}
	.st12{clip-path:url(#SVGID_27_);fill:url(#SVGID_28_);}
	.st13{fill:#282723;}
	.st14{clip-path:url(#SVGID_30_);fill:#1F2733;}
	.st15{fill:url(#SVGID_31_);}
	.st16{fill:url(#SVGID_32_);}
	.st17{fill:#D9D9EE;}
	.st18{fill:#FDF8FB;}
	.st19{fill:#2D2F62;}
	.st20{fill:#555AA3;}
	.st21{fill:#F6A513;}
	.st22{fill:#E84B5D;}
	.st23{clip-path:url(#SVGID_34_);fill:url(#SVGID_35_);}
	.st24{clip-path:url(#SVGID_37_);fill:url(#SVGID_38_);}
	.st25{clip-path:url(#SVGID_40_);fill:url(#SVGID_41_);}
	.st26{clip-path:url(#SVGID_43_);fill:url(#SVGID_44_);}
	.st27{fill:#1F2733;}
	.st28{clip-path:url(#SVGID_46_);fill:url(#SVGID_47_);}
	.st29{clip-path:url(#SVGID_49_);fill:url(#SVGID_50_);}
	.st30{clip-path:url(#SVGID_52_);fill:url(#SVGID_53_);}
	.st31{clip-path:url(#SVGID_55_);fill:url(#SVGID_56_);}
	.st32{clip-path:url(#SVGID_58_);fill:url(#SVGID_59_);}
	.st33{fill:#945043;}
	.st34{clip-path:url(#SVGID_61_);fill:url(#SVGID_62_);}
	.st35{clip-path:url(#SVGID_64_);fill:url(#SVGID_65_);}
	.st36{clip-path:url(#SVGID_67_);fill:url(#SVGID_68_);}
	.st37{clip-path:url(#SVGID_70_);fill:url(#SVGID_71_);}
	.st38{clip-path:url(#SVGID_73_);fill:url(#SVGID_74_);}
	.st39{fill:#F8FAFF;}
	.st40{fill:#F8FBFD;}
	.st41{clip-path:url(#SVGID_76_);fill:url(#SVGID_77_);}
	.st42{clip-path:url(#SVGID_79_);fill:url(#SVGID_80_);}
	.st43{clip-path:url(#SVGID_82_);fill:url(#SVGID_83_);}
	.st44{clip-path:url(#SVGID_85_);fill:url(#SVGID_86_);}
	.st45{clip-path:url(#SVGID_88_);fill:url(#SVGID_89_);}
	.st46{clip-path:url(#SVGID_91_);fill:url(#SVGID_92_);}
	.st47{clip-path:url(#SVGID_94_);fill:url(#SVGID_95_);}
	.st48{clip-path:url(#SVGID_97_);fill:url(#SVGID_98_);}
	.st49{clip-path:url(#SVGID_100_);fill:url(#SVGID_101_);}
	.st50{clip-path:url(#SVGID_103_);fill:url(#SVGID_104_);}
	.st51{clip-path:url(#SVGID_106_);fill:url(#SVGID_107_);}
	.st52{clip-path:url(#SVGID_109_);fill:#F9D453;}
</style>
<g>
	<g>
		<g>
			<g>
				<defs>
					<path id="SVGID_1_" d="M906.2,694.9c-1,0.3-2.2,0.6-3.4,0.9c-1.3,0.3-2.5,0.6-3.9,1c-2.7,0.7-5.7,1.5-8.9,2.2
						c-3.2,0.8-6.6,1.7-10,2.6c-3.3,1-7,1.8-10.3,3c-7,2.2-13.9,4.8-20.3,8.5c-6.5,3.7-12.3,8.1-17.8,13.1c-2.7,2.3-5.4,4.9-8,7.3
						c-2.5,2.5-5,4.9-7.4,7.2c-2.3,2.4-4.5,4.5-6.6,6.5c-1,1-2,2-2.8,2.9c-0.9,0.9-1.7,1.7-2.4,2.4c-3,3-4.8,4.9-4.8,4.9
						s2.1,1.5,5.9,3.6c1,0.6,2.1,1.2,3.2,1.7c1.2,0.5,2.5,1.1,3.9,1.7c2.8,1.1,6.1,2.4,9.7,3.2c1.8,0.5,3.7,0.9,5.7,1.3
						c2,0.4,4.1,0.6,6.2,0.8c4.4,0.5,8.8,0.4,13.6,0.2c9.4-0.8,19.5-3.4,28.7-8.5c9.1-5.2,16.6-12.5,22.2-20.1
						c2.7-3.9,5.1-7.8,6.9-11.8c1-2,1.8-3.9,2.5-5.8c0.7-2,1.3-3.8,1.8-5.6c1.1-3.6,1.8-7,2.2-10c0.2-1.5,0.4-2.9,0.6-4.3
						c0.1-1.3,0.1-2.6,0.2-3.7c0.1-4.4-0.1-7-0.1-7S910.3,693.9,906.2,694.9"/>
				</defs>
				<clipPath id="SVGID_2_">
					<use xlink:href="#SVGID_1_"  style="overflow:visible;"/>
				</clipPath>
				
					<linearGradient id="SVGID_3_" gradientUnits="userSpaceOnUse" x1="-2101.717" y1="-5296.9473" x2="-2100.9167" y2="-5296.9473" gradientTransform="matrix(-146.3511 467.2705 -467.2705 -146.3511 -2781776 207386.3906)">
					<stop  offset="0" style="stop-color:#F6D875"/>
					<stop  offset="1" style="stop-color:#FA4265"/>
				</linearGradient>
				<polygon class="st0" points="827.9,666.7 917.3,694.7 887.9,788.5 798.5,760.5 				"/>
			</g>
		</g>
	</g>
</g>
<path class="st1" d="M892.3,689.3c-2.1,0.5-4.6,1.4-7.7,2.9c-1.4,0.8-3,1.6-4.7,2.5s-3.4,2-5.3,3.1c-7.4,4.4-15.8,10.1-25.5,16.1
	c-5.9,3.8-11.6,7.4-16.9,11c-5.2,3.7-10.2,7.1-14.4,10.6c-8.6,6.9-15,13.4-18,18.1c3-4.7,6.4-13.1,12.8-22.7
	c3.1-4.9,7.2-9.9,11.9-14.9c4.8-5,10.6-9.7,17.1-13.8c10.8-6.7,21.8-9.6,30.6-10.9C881.2,689.9,888.1,690.3,892.3,689.3"/>
<path class="st1" d="M885.6,667.4c-3.5,1-8.6,4-14.5,8.3c-5.9,4.2-12.7,9.6-20.6,15c-4.8,3.4-9.4,6.6-13.8,9.8
	c-4.2,3.3-8.3,6.3-11.8,9.4c-7.1,6.1-12.4,11.8-14.6,16c2.2-4.2,4.4-11.6,9.2-20.3c2.3-4.4,5.4-9,9.2-13.6c3.8-4.5,8.5-9,13.9-12.8
	c9-6.2,18.4-9,26-10.1C876.3,667.9,882.2,668.3,885.6,667.4"/>
<path class="st1" d="M882.3,636.5c-1.8,0.5-3.9,1.4-6.4,2.7c-1.2,0.7-2.5,1.5-3.8,2.4c-1.4,0.9-2.7,1.9-4.2,3
	c-5.8,4.3-12.3,9.7-19.7,15.5c-4.5,3.7-8.8,7.2-12.7,10.7c-3.8,3.6-7.5,7-10.6,10.5c-6.2,6.8-10.5,13.4-12,17.8
	c1.5-4.4,2.4-12.2,6.1-21.4c1.8-4.6,4.3-9.6,7.7-14.6c3.4-4.9,7.8-9.7,13-13.9c8.6-6.8,18.2-9.8,25.8-11c1.9-0.2,3.7-0.6,5.4-0.7
	c1.7-0.1,3.3-0.2,4.7-0.3C878.3,637,880.7,637,882.3,636.5"/>
<path class="st1" d="M824.6,575.8c0.9,3.5,4,8.6,6.8,15.7c2.8,7.1,5.4,16.4,5,27.2c-0.3,6.6-1.4,12.8-3,18.4
	c-1.6,5.7-3.6,10.7-5.8,15.2c-4.2,8.9-8.8,15.2-10.7,19.5c1.9-4.3,3.2-12,4-21.4c0.5-4.6,0.6-9.8,0.9-15.2
	c0.2-5.4,0.4-11.1,0.6-17.1c0.3-9.8,1.4-18.3,2.1-25.7C825.3,585.3,825.5,579.4,824.6,575.8"/>
<path class="st1" d="M916.3,763.6c-3.1,1.1-7.4,10-16.3,13.2c-10.9,3.8-22.2,0.5-26.2,1.9c4.1-1.4,10.7-11.2,21.6-15
	C904.2,760.6,913.1,764.7,916.3,763.6"/>
<g class="st2">
	<g>
		<g>
			<g>
				<g>
					<defs>
						
							<rect id="SVGID_4_" x="810.7" y="679.4" transform="matrix(0.2989 -0.9543 0.9543 0.2989 -91.1862 1328.3008)" width="95.3" height="93.7"/>
					</defs>
					<clipPath id="SVGID_5_">
						<use xlink:href="#SVGID_4_"  style="overflow:visible;"/>
					</clipPath>
					<path class="st3" d="M895.5,745.5l1-1.2c-2.2-0.4-5.2-0.7-8.4-1c-3.3-0.4-7.2-0.7-11.2-0.8c-8.1-0.4-17-0.2-25.7,1.5
						c7.7-3.5,15.1-7.7,22.1-12.4c1.4-1,2.9-1.8,4.4-2.6s3-1.5,4.5-2c3.1-1.1,6.2-2.1,9.2-2.7c3.1-0.6,6.2-1.2,9-1.5
						s5.7-0.6,8.1-0.7l0.4-1.4c-7.7,0.6-18.4,1.6-28.1,5.5c12.1-9,22.8-19.9,31.9-31.8c-0.1-0.6,0-0.9,0-0.9s-0.4,0.1-1,0.2
						c-9,11.9-19.7,22.7-31.7,31.6c6.5-8.3,8-18.6,7.6-25.6l-1.2,0.3c0.1,2.3,0,4.7-0.4,7.4c-0.3,2.7-1,5.6-2.1,8.3
						c-1,2.8-2.5,5.7-4.4,8.2c-1,1.3-2.1,2.5-3.2,3.7c-1.2,1.1-2.5,2.1-4,3.1c-7,4.7-14.3,8.8-22,12.3c7.1-5.4,11.3-13.1,13.7-20
						c1.1-3.6,1.8-6.9,2.2-9.8c0.4-3,0.4-5.6,0.3-7.5l-1.1,0.4c0,2.4-0.1,5.6-0.8,9.2c-0.6,3.6-1.7,7.7-3.6,11.7
						c-1.8,4.1-4.4,8-7.8,11.7c-1.7,1.7-3.7,3.4-5.7,4.8c-2.1,1.4-4.4,2.6-6.9,3.6c-3.1,1.2-6.3,2.3-9.5,3.4c-3.3,0.9-6.5,2-9.7,2.7
						c9.9-5.1,16.2-14.1,19.5-21.7c1.6-3.9,2.6-7.5,3.2-10.2s0.7-4.8,0.8-5.5l-1.2,0.8c-0.2,1.6-0.6,4.3-1.5,7.8
						c-0.4,1.7-1.1,3.7-1.9,5.7c-0.9,2-1.8,4-3,6.2c-1.2,2.1-2.7,4.2-4.4,6.2c-0.8,1-1.7,2.1-2.7,3c-1,1-2,1.8-3.1,2.6
						s-2.2,1.7-3.4,2.4c-1.2,0.8-2.5,1.4-3.8,2s-2.7,1.2-4.1,1.6c-1.4,0.5-2.9,0.8-4.4,1c-3.9,0.8-7.6,1.1-11.6,1.7
						c-0.4,0.5-0.6,0.7-0.6,0.7s0.3,0.2,0.8,0.5c3.9-0.5,7.8-0.9,11.7-1.6c12.1-2.2,23.9-0.3,34.4,2.1c2.6,0.6,5.1,1.2,7.5,1.9
						s4.5,1.2,6.5,1.9c3.9,1.2,7,2.4,8.7,2.9l1.8-0.8c-0.7-0.3-2.8-1-5.9-2c-3.1-1.1-7-2.2-11.5-3.4c-9.1-2.4-20-4.8-31.1-4.7
						c3.3-0.7,6.5-1.8,9.8-2.7c3.2-1.1,6.5-2.2,9.6-3.4c10-3.8,20.4-4.6,30.1-4.5C881.3,743.7,890.2,744.7,895.5,745.5"/>
				</g>
			</g>
		</g>
	</g>
</g>
<g>
	<g>
		<g>
			<g>
				<defs>
					<path id="SVGID_6_" d="M849.9,530.1c-3.1,1.1-6.2,3-8.3,5.6c-2.2,2.6-3.8,5.6-4.6,8.7c-0.4,1.5-0.7,3-1,4.4s-0.6,2.8-0.9,4.1
						c-0.6,2.6-1.4,4.8-2.9,6.7c-3,3.8-8.2,6.2-19.8,7.7c-8.8,1-14.5,3.5-18.6,6.7c-2.1,1.6-3.8,3.4-5,5.5s-2.1,4.4-2.8,6.9
						c-0.6,2.5-1.1,5.1-1.5,8c-0.3,2.9-0.5,5.9-0.6,9.2c-0.2,3.3-0.4,6.6-0.7,10.2c-0.2,3.7-0.6,7.4-1.1,11.5
						c-0.3,2-0.8,3.9-1.3,5.7s-1.1,3.5-1.9,5.1c-1.5,3.3-3.5,6.2-5.9,9c-2.2,2.8-4.7,5.5-7.5,8.2c-2.7,2.6-5.7,5.3-8.4,8.1
						c-5.5,5.6-11.4,11.7-15.2,19.2c-4.2,7.4-6.4,16.4-5.8,27c1.4,15.9,9,29.5,19.3,38.5s22.6,13.5,33.7,13.4
						c11-0.1,21.8-4.9,28.8-10.6c3.4-2.9,6.3-6,7.7-9.2c1.4-3.2,1.4-6.5-0.2-9.7c-6.5-12.7-2.6-18.2,7-25.2c5-3.4,9-7,10.6-11.2
						c1.8-4.2,0.6-9-4.6-15.4c-10.6-12.6-13-26.9-2.9-34.5c2.5-1.9,5.7-3.5,9.2-5.2c3.5-1.6,7.3-3.2,10.7-5.1c3.4-2,6.6-4.2,9-7
						c1.2-1.4,2.2-3.1,3-5c0.8-1.8,1.4-3.9,1.7-6.3c1-9.6-2.6-16.3-6.2-21.9c-3.5-5.6-7-10-4.2-14.3c1.4-2.2,3.6-5,5.8-8.2
						c2.4-3.1,5-6.6,7-10.3c1.9-3.8,3.5-7.4,3.6-11.4c0.1-3.8-1.1-7.8-4.5-11.8c-4.9-5.7-10.2-8-15.1-8
						C853.5,529.2,851.7,529.6,849.9,530.1"/>
				</defs>
				<clipPath id="SVGID_7_">
					<use xlink:href="#SVGID_6_"  style="overflow:visible;"/>
				</clipPath>
				
					<linearGradient id="SVGID_8_" gradientUnits="userSpaceOnUse" x1="-2075.5461" y1="-5288.4165" x2="-2074.7458" y2="-5288.4165" gradientTransform="matrix(0 -218.3828 218.3828 0 1155704.25 -452534.25)">
					<stop  offset="0" style="stop-color:#D1DAE9"/>
					<stop  offset="2.104920e-03" style="stop-color:#D1DAE9"/>
					<stop  offset="1" style="stop-color:#D1DAE9"/>
				</linearGradient>
				<rect x="735.3" y="529.2" class="st4" width="139.7" height="230.4"/>
			</g>
		</g>
	</g>
</g>
<g>
	<g>
		<g>
			<g>
				<defs>
					<path id="SVGID_9_" d="M672.7,295.6c-26.4,5.8-49,27.7-56.9,54.9c-16.1-7.1-32.7-14.3-50.2-13.9c-17.4,0.3-35.9,10.4-41.1,27.9
						c-3.3,11-0.7,23,4.4,32.9c3.4,6.5,17.3,17,14.2,23.9c-2.6,5.8-12.8,4.7-20.6,3.6c-3.1-0.5-5.8-0.9-7.6-0.9
						c-10.3,0-20.6,2.1-29.5,8c-7.4,5-13.6,12.6-22.2,14.8c-8.9,2.3-18.1-1.6-26-6.5s-15.5-10.7-24.5-12.7s-19.8,1.4-23.2,10.3
						c-3.1,8.4,1.8,18.2,9,23.1c7.3,4.8,16.2,5.8,24.7,6.5c66.3,4.9,133.6-3.9,196.7-25.8c19.4-6.7,40.6-14.7,59.5-6.7
						c11.2,4.7,19.8,14.4,30.7,19.9c13.3,6.8,28.7,6.8,43.5,6.6c17.4-0.2,34.7-0.3,52-0.6c3.4,0,6.9-0.2,9.7-2.1
						c7.4-5.3,1.9-19-6.8-21.4s-17.6,1.9-26.1,5.1c-8.5,3.2-19,4.8-25.5-1.7c-4.9-4.8-5.8-12.7-4.5-19.6c1.3-6.9,4.5-13.2,6.8-19.8
						c9.4-26.6,4-58.5-13.6-80c-14.3-17.5-36.3-27.7-58.1-27.7C682.6,293.9,677.6,294.5,672.7,295.6"/>
				</defs>
				<clipPath id="SVGID_10_">
					<use xlink:href="#SVGID_9_"  style="overflow:visible;"/>
				</clipPath>
				
					<linearGradient id="SVGID_11_" gradientUnits="userSpaceOnUse" x1="-2080.6963" y1="-5290.1577" x2="-2079.896" y2="-5290.1577" gradientTransform="matrix(0 -299.4556 299.4556 0 1584772.125 -622541.125)">
					<stop  offset="0" style="stop-color:#D1DAE9"/>
					<stop  offset="0.1874" style="stop-color:#D1DAE9"/>
					<stop  offset="1" style="stop-color:#D1DAE9"/>
				</linearGradient>
				<rect x="386.5" y="293.9" class="st5" width="436.5" height="178.5"/>
			</g>
		</g>
	</g>
</g>
<path class="st6" d="M844.8,549.9c31.3-30,37.2-85.1-24.1-114.8c-61-29.5-133.1-26.5-196.1-80c-7.9-6.7-15-14.1-16.5-23
	c-2-11.6,10.8-23.4,22.4-16.6c12.9,7.6,5.7,29.8-24.2,46.4c-33.6,18.5-75.5,28.2-117.1,27.6c-43-0.6-85-12.2-128-10.6
	c-68.7,2.6-132.1,42.4-147.4,92.9c-9.5,31.3,0,64.9,22.9,91.8"/>
<path class="st1" d="M292,780.8c-3.5,0.4-8.9,2.4-16.5,3.3c-7.6,0.8-17.5,0.2-27.3-4.9c-3-1.6-5.7-3.4-8.3-5.4
	c-2.5-2-4.7-4.1-6.7-6.4c-4-4.4-6.9-9.1-9-13.5c-4.3-8.9-5.4-16.4-6.9-20.7c1.5,4.3,6,10.6,12.6,16.6c6.7,6.1,15.1,12,24.8,17
	c7.9,4.2,15.2,7.8,21.7,10.3C282.8,779.7,288.5,781.2,292,780.8"/>
<g>
	<g>
		<g>
			<g>
				<g>
					<defs>
						<path id="SVGID_12_" d="M332.3,557.3c-8.6-20.9,1.4-44.8,22.2-53.5c20.9-8.6,44.8,1.4,53.5,22.2c8.6,20.9-1.4,44.8-22.2,53.5
							c-5.1,2.1-10.4,3.1-15.6,3.1C354.1,582.6,338.8,573.1,332.3,557.3 M338.4,412.5l-37,15.3c-4.8,2-7.1,7.5-5.1,12.3l6.7,16.2
							c1.5,3.7,0.5,7.8-2.4,10.6c-1.8,1.7-3.5,3.4-5.1,5.1c-2.7,2.9-6.9,3.9-10.6,2.4l-16.2-6.7c-4.8-2-10.3,0.2-12.3,5l-15.4,37
							c-2,4.8,0.2,10.3,5,12.3l16.2,6.7c3.7,1.5,5.9,5.2,5.8,9.2c-0.1,2.4-0.1,4.8,0,7.3c0.2,4-2.2,7.7-5.8,9.2l-16.2,6.7
							c-4.8,2-7.1,7.5-5.1,12.3l15.3,37c2,4.8,7.5,7.1,12.3,5.1l16.2-6.7c3.7-1.5,7.8-0.5,10.6,2.4c1.7,1.8,3.4,3.5,5.1,5.1
							c2.9,2.7,3.9,6.9,2.4,10.6l-6.7,16.2c-2,4.8,0.2,10.3,5,12.3l37,15.4c4.8,2,10.3-0.2,12.3-5l6.7-16.2c1.5-3.7,5.2-5.9,9.2-5.8
							c2.4,0.1,4.8,0.1,7.3,0c4-0.2,7.7,2.2,9.2,5.8l6.7,16.2c2,4.8,7.5,7.1,12.3,5.1l37-15.3c4.8-2,7.1-7.5,5.1-12.3l-6.6-16.1
							c-1.5-3.7-0.5-7.8,2.4-10.6c1.8-1.7,3.5-3.4,5.1-5.1c2.7-2.9,6.9-3.9,10.6-2.4l16.2,6.7c4.8,2,10.3-0.2,12.3-5l15.4-37
							c2-4.8-0.2-10.3-5-12.3l-16.2-6.7c-3.7-1.5-5.9-5.2-5.8-9.2c0.1-2.4,0.1-4.8,0-7.3c-0.2-4,2.2-7.7,5.8-9.2l16.2-6.7
							c4.8-2,7.1-7.5,5.1-12.3l-15.3-37c-2-4.8-7.5-7.1-12.3-5.1l-16.2,6.7c-3.7,1.5-7.8,0.5-10.6-2.4c-1.7-1.8-3.4-3.5-5.1-5.1
							c-2.9-2.7-3.9-6.9-2.4-10.6l6.7-16.2c2-4.8-0.2-10.3-5-12.3l-37-15.4c-4.8-2-10.3,0.2-12.3,5l-6.7,16.2
							c-1.5,3.7-5.2,5.9-9.2,5.8c-2.4-0.1-4.8-0.1-7.3,0c-4,0.2-7.7-2.2-9.2-5.8l-6.7-16.2c-1.5-3.6-5-5.8-8.7-5.8
							C340.8,411.7,339.6,412,338.4,412.5"/>
					</defs>
					<clipPath id="SVGID_13_">
						<use xlink:href="#SVGID_12_"  style="overflow:visible;"/>
					</clipPath>
					
						<linearGradient id="SVGID_14_" gradientUnits="userSpaceOnUse" x1="-2100.1262" y1="-5298.9609" x2="-2099.5378" y2="-5298.9609" gradientTransform="matrix(200.4917 485.9322 -485.9322 200.4917 -2153563.25 2083323.25)">
						<stop  offset="0" style="stop-color:#F6D875"/>
						<stop  offset="0.7118" style="stop-color:#FA4265"/>
					</linearGradient>
					<polygon class="st7" points="463.1,318 593.8,634.8 277.1,765.4 146.5,448.7 					"/>
				</g>
			</g>
		</g>
	</g>
	<g>
		<g>
			<g>
				<g>
					<defs>
						<path id="SVGID_15_" d="M321,561.9c-11.2-27.1,1.8-58.2,28.8-69.4c27.1-11.2,58.2,1.8,69.4,28.8c11.2,27.1-1.8,58.2-28.8,69.4
							c-6.6,2.7-13.5,4-20.2,4C349.3,594.8,329.5,582.4,321,561.9 M334.3,454.9c-47.9,19.8-70.8,74.7-51,122.7
							c19.8,47.9,74.7,70.8,122.7,51c47.9-19.8,70.8-74.7,51-122.7c-15-36.3-49.9-58.1-86.9-58.1C358.1,447.7,346,450,334.3,454.9"
							/>
					</defs>
					<clipPath id="SVGID_16_">
						<use xlink:href="#SVGID_15_"  style="overflow:visible;"/>
					</clipPath>
					
						<linearGradient id="SVGID_17_" gradientUnits="userSpaceOnUse" x1="-2083.8945" y1="-5286.8218" x2="-2083.0942" y2="-5286.8218" gradientTransform="matrix(-126.9757 -307.7513 307.7513 -126.9757 1362840 -1311955.75)">
						<stop  offset="0" style="stop-color:#F6D875"/>
						<stop  offset="1" style="stop-color:#FA4265"/>
					</linearGradient>
					<polygon class="st8" points="294.5,723.5 192.7,476.9 445.7,372.5 547.5,619.2 					"/>
				</g>
			</g>
		</g>
	</g>
</g>
<g>
	<g>
		<g>
			<g>
				<g>
					<defs>
						<path id="SVGID_18_" d="M150.5,632.3c-4.3,8.9-2.9,16.1,0.8,20.9c1.9,2.4,4.4,4.1,7,5.4c2.7,1.2,5.6,1.7,8.5,1.6
							c5.7-0.4,10.4-1.1,14.3,0.7s6.9,6.6,8.8,17.1c1.4,7.8,3.2,13.1,5.9,16.5c2.6,3.4,5.8,5.2,9.8,6.2c2,0.5,4.2,0.8,6.5,1
							s4.9,0.5,7.5,0.7c2.7,0.3,5.6,0.6,8.6,1.1s6.1,1.3,9.4,2.3s6,2.6,8.4,4.6c2.3,2,4.2,4.4,5.8,7c3.1,5.4,5.2,11.5,7.2,18
							c1.9,6.4,4,12.7,7.1,18.5c3.3,5.6,7.7,10.7,15,14.3c10.6,5.6,23.4,6.6,35.7,4.9c12.2-1.7,24.1-6.4,31.9-13.6
							c7.9-7.1,12.2-17.5,12.4-27.2c0.2-4.9-0.9-9.3-2.8-12.9c-2-3.6-4.8-6.4-8.8-7.4c-15.4-4.4-18.1-10.4-20.9-23.3
							c-1.4-6.3-3.6-12.4-7.6-16.3c-4-3.8-9.9-5.8-18.3-3.9c-16.9,3.9-31.1,1.8-38-9.7c-1.7-2.9-3.1-6.6-4.7-10.4
							c-1.6-3.8-3.3-7.8-5.5-11.7c-2.2-3.9-5-7.5-8.7-10.3c-1.8-1.4-3.9-2.7-6.1-3.7c-2.3-1-4.9-1.7-7.7-2.2
							c-11.3-1.8-18.3,2.5-23.6,6.3c-5.3,3.9-9,7.5-14.2,5.6c-2.6-1-6-2.6-9.9-4.3c-3.9-1.6-8.2-3.2-12.6-4.1
							c-5.1-1-10.2-1.1-14.4,0.9C154.7,626.3,152.2,628.6,150.5,632.3"/>
					</defs>
					<clipPath id="SVGID_19_">
						<use xlink:href="#SVGID_18_"  style="overflow:visible;"/>
					</clipPath>
					
						<linearGradient id="SVGID_20_" gradientUnits="userSpaceOnUse" x1="-2073.3613" y1="-5288.769" x2="-2072.5613" y2="-5288.769" gradientTransform="matrix(-89.1036 -186.4921 186.4921 -89.1036 801857.875 -857156.5)">
						<stop  offset="0" style="stop-color:#D1DAE9"/>
						<stop  offset="2.104920e-03" style="stop-color:#D1DAE9"/>
						<stop  offset="1" style="stop-color:#D1DAE9"/>
					</linearGradient>
					<polygon class="st9" points="140.4,633.1 284.5,564.3 373.7,751 229.6,819.9 					"/>
				</g>
			</g>
		</g>
	</g>
	<g>
		<g>
			<g>
				<g>
					<defs>
						<path id="SVGID_21_" d="M238.9,670.1c-2,1.1-3.7,2.1-5.4,3.1c-1.6,1-3.1,2.1-4.4,3.1c-5.2,3.8-7.8,6.3-7.8,6.3s3,2.5,7.8,6.2
							c1.2,0.9,2.5,1.9,3.9,3s2.9,2.3,4.6,3.6c3.2,2.6,6.7,5.1,10.4,8.2c1.9,1.5,3.7,2.9,5.6,4.4c1.9,1.6,3.9,3.2,5.9,4.7
							c4.1,2.9,8.1,6.3,12.3,9.2c8.4,6.2,17.1,11.8,26.7,16.2c9.6,4.5,19.5,7.4,29.6,9.7c4.9,1.4,10.2,2.2,15,3.3
							c2.5,0.5,5,0.9,7.4,1.4s4.7,1,7.1,1.4c4.7,0.8,9,1.7,13,2.5c2,0.4,3.9,0.7,5.7,1.1c1.8,0.4,3.4,0.7,4.8,1.1
							c6,1.2,9.8,1.9,9.8,1.9s0.2-3.6-0.4-10c-0.2-1.6-0.3-3.4-0.6-5.3c-0.3-1.9-0.7-3.9-1.1-6c-0.9-4.3-2.1-9.3-4-14.3
							c-1-2.6-2-5.3-3.2-8s-2.7-5.4-4.1-8.1c-3-5.7-6.8-10.9-11.2-16.5c-8.9-10.6-20.6-20.4-34.6-26.8c-14-6.3-29.2-8.9-42.9-8.7
							c-6.9,0.3-13.5,0.8-19.8,2.3c-3.1,0.7-6,1.4-8.9,2.2c-2.8,0.9-5.5,1.8-8.1,2.8c-2.4,0.9-4.8,1.9-6.9,3
							C243.2,667.8,241,669,238.9,670.1"/>
					</defs>
					<clipPath id="SVGID_22_">
						<use xlink:href="#SVGID_21_"  style="overflow:visible;"/>
					</clipPath>
					
						<linearGradient id="SVGID_23_" gradientUnits="userSpaceOnUse" x1="-2104.9583" y1="-5311.3643" x2="-2104.158" y2="-5311.3643" gradientTransform="matrix(198.7141 80.9603 -80.9603 198.7141 -11532.8789 1226530.25)">
						<stop  offset="0" style="stop-color:#F6D875"/>
						<stop  offset="1" style="stop-color:#FA4265"/>
					</linearGradient>
					<polygon class="st10" points="256.1,589.8 438.2,664 364.5,845.1 182.3,770.9 					"/>
				</g>
			</g>
		</g>
	</g>
	<g class="st2">
		<g>
			<g>
				<g>
					<g>
						<defs>
							
								<rect id="SVGID_24_" x="245.7" y="646.6" transform="matrix(0.9023 -0.4311 0.4311 0.9023 -280.4836 202.1816)" width="120.3" height="146.6"/>
						</defs>
						<clipPath id="SVGID_25_">
							<use xlink:href="#SVGID_24_"  style="overflow:visible;"/>
						</clipPath>
						<path class="st11" d="M296.7,656.8l-2.3-0.1c1.6,2.9,3.7,6.5,6.2,10.6c2.5,4.2,5.4,8.9,8.7,13.7c1.7,2.4,3.3,5,5.1,7.4
							c1.7,2.5,3.7,4.8,5.6,7.3s4,4.9,6.1,7.3c2.1,2.3,4.3,4.8,6.7,6.9c-2.7-1.5-5.3-3.1-8-4.4l-8.2-4c-2.8-1.3-5.6-2.5-8.4-3.6
							c-1.4-0.6-2.8-1.2-4.2-1.8l-4.3-1.6c-2.3-0.8-4.6-1.9-6.7-3c-2.2-1-4.3-2.2-6.3-3.5c-4-2.6-7.8-5.3-11.2-8.3
							c-3.4-3.1-6.7-6.1-9.8-9.1c-3-3-5.7-6.1-8-8.7c-0.7,0.2-1.3,0.4-2,0.7c3.7,4.1,8.3,9.2,13.6,14c2.6,2.3,5.4,5,8.3,7.1
							c1.4,1.2,3,2.2,4.5,3.3s3.1,2.2,4.7,3.2c-20.8-6.3-42.7-9-64.5-8.5c-0.7,0.6-1,0.9-1,0.9s0.4,0.3,1.1,0.9
							c21.6-0.5,43.2,2.1,64,8.4c-1.9-0.1-3.7,0-5.5,0.1c-1.9,0.2-3.7,0.5-5.4,0.9c-3.5,0.8-6.8,1.7-9.9,3.1
							c-6.1,2.8-11.2,6.1-15.1,9.5c0.4,0.3,0.9,0.7,1.4,1c2.4-2.1,5.4-4.2,8.7-6c3.3-1.9,7.2-3.8,11.3-4.9c4.1-1.2,8.7-2.1,13.2-2
							c2.3,0,4.7,0.2,7.1,0.5c2.3,0.4,4.7,1.1,7.1,2l4.3,1.5c1.4,0.6,2.8,1.2,4.2,1.7c2.8,1.2,5.6,2.3,8.4,3.6l8.1,4
							c2.7,1.3,5.3,3,7.9,4.4c-3.1-0.8-6.1-1.6-9.2-1.9c-3.1-0.3-6.1-0.4-9.1-0.3c-2.9,0.1-5.9,0.6-8.6,1.1c-2.8,0.5-5.4,1.2-7.9,2
							c-5.1,1.8-9.4,3.8-13.2,5.8c-3.7,2.2-6.7,4.4-9,6.1l1.4,0.9c2.7-2,6.5-4.8,11.1-7.1c4.7-2.3,10.3-4.6,16.5-5.9
							c6.3-1.5,13.1-1.7,20.2-0.9c3.5,0.6,7,1.4,10.5,2.6c3.4,1.3,6.8,3.1,10.1,5.1c2.1,1.2,4,2.8,6,4.2c1.9,1.5,4,2.8,5.9,4.4
							l5.7,4.6l2.8,2.3c0.9,0.8,1.8,1.6,2.7,2.4c-3.4-2-7.2-3.3-10.8-4.4c-3.6-1.1-7.4-1.7-11-2c-7.1-0.8-14.1,0.2-19.9,1.3
							c-5.9,1.3-10.9,3.3-14.5,4.9c-3.6,1.7-6.2,3.2-7,3.7l1.9,0.7c2-1.2,5.5-3,10.4-4.8c2.4-0.9,5.2-1.9,8.3-2.5
							c3-0.6,6.2-1.2,9.8-1.6c3.5-0.4,7.1-0.3,10.9,0c1.9,0.2,3.8,0.4,5.8,0.7c1.9,0.4,3.8,0.9,5.7,1.5c1.9,0.6,3.8,1.3,5.8,2
							c1.9,0.8,3.7,1.8,5.5,2.9c1.8,1.1,3.6,2.3,5.3,3.5c1.7,1.3,3.2,2.9,4.8,4.5c4,3.9,7.5,8.3,11.2,12.6c0.9,0.1,1.4,0.2,1.4,0.2
							s0-0.5,0.1-1.4c-3.6-4.3-7.3-8.7-11.3-12.7c-1.5-1.6-3-3.3-4.3-5c-1.4-1.6-2.7-3.3-4-5.1c-1.3-1.7-2.4-3.6-3.5-5.3
							c-1.2-1.7-2.3-3.5-3.3-5.4c-1-1.8-2-3.7-2.9-5.6c-1-1.8-1.9-3.6-2.8-5.5c-1.8-3.7-3.2-7.5-4.8-11c-1.5-3.5-2.8-7.1-4-10.4
							c-1.2-3.3-2.3-6.3-3.3-9.2c-1.9-5.7-3.2-10.3-3.9-12.7l-2.5-1.5c0.3,1.1,1.2,4.2,2.6,8.7s3.4,10.2,5.8,16.5
							c2.3,6.5,5.3,13.3,8.5,20.3c1.7,3.5,3.5,6.9,5.4,10.5c1.9,3.5,4.1,6.7,6.4,10.2c-0.9-0.8-1.8-1.7-2.7-2.5l-2.9-2.3l-5.7-4.6
							c-1.9-1.5-4-2.9-6-4.3c-2-1.4-3.9-3-6-4.2c-3.3-2.1-6.3-4.6-9.1-7c-2.8-2.4-5.5-5-8-7.8c-5.1-5.2-9.5-11.2-13.6-16.7
							c-4-5.8-7.7-11.3-10.9-16.4C301.3,664.5,298.6,660.2,296.7,656.8"/>
					</g>
				</g>
			</g>
		</g>
	</g>
	<g>
		<g>
			<g>
				<g>
					<defs>
						<path id="SVGID_26_" d="M238,723.7c-0.1,1-0.3,2.6-0.3,4.5c-0.1,3.9,0.3,9.4,2.2,15.9c1.9,6.5,5.2,13.7,10.8,20.5
							c5.4,6.7,13.1,12.9,22.2,16.6c9.1,3.7,18.9,4.6,27.5,3.6s16.2-3.8,22-7.2c5.9-3.3,10-7,12.7-9.8c1.3-1.3,2.3-2.6,2.9-3.3
							c0.6-0.8,1-1.3,1-1.3s-2-1.1-5.3-2.7s-7.7-4-12.5-6.8s-9.8-5.9-14.9-8.9s-10-5.9-15.3-8s-10.9-3.6-16.6-5s-11.5-2.6-16.9-4
							c-5.3-1.3-10.3-2.7-13.7-3.8c-3.5-1.1-5.7-1.7-5.7-1.7S238.1,722.6,238,723.7"/>
					</defs>
					<clipPath id="SVGID_27_">
						<use xlink:href="#SVGID_26_"  style="overflow:visible;"/>
					</clipPath>
					
						<linearGradient id="SVGID_28_" gradientUnits="userSpaceOnUse" x1="-2110.6003" y1="-5320.0322" x2="-2109.8003" y2="-5320.0322" gradientTransform="matrix(132.7249 54.9564 -54.9564 132.7249 -12024.6221 822810.25)">
						<stop  offset="0" style="stop-color:#F6D875"/>
						<stop  offset="1" style="stop-color:#FA4265"/>
					</linearGradient>
					<polygon class="st12" points="253.5,669.5 364,715.2 318.4,825.4 207.8,779.7 					"/>
				</g>
			</g>
		</g>
	</g>
	
		<rect x="362.1" y="737.7" transform="matrix(0.9023 -0.4311 0.4311 0.9023 -282.7632 229.4242)" class="st13" width="5.4" height="1.7"/>
	<g class="st2">
		<g>
			<g>
				<g>
					<g>
						<defs>
							
								<rect id="SVGID_29_" x="244.4" y="704.5" transform="matrix(0.9023 -0.4311 0.4311 0.9023 -293.3028 195.7002)" width="81.5" height="80.9"/>
						</defs>
						<clipPath id="SVGID_30_">
							<use xlink:href="#SVGID_29_"  style="overflow:visible;"/>
						</clipPath>
						<path class="st14" d="M277.8,732.8l-0.9-0.3c0,3.3,0.3,8.7,2.7,14.5c2.3,5.7,6.9,11.8,13.7,15.5c-7-1.9-13.8-4.6-20.2-8.1
							c-5.2-2.8-8.7-7.5-10.6-12.3s-2.3-9.6-1.9-13.4l-1-0.2c-0.3,3-0.2,6.7,0.8,10.5c0.9,3.8,2.9,7.9,5.8,11.2
							c-10.8-7.2-20.1-16.6-27.1-27.5c-0.5-0.1-0.8-0.2-0.8-0.2s0,0.3-0.1,0.9c7.1,11.1,16.5,20.5,27.3,27.8
							c-8.6-2.9-17.9-3.9-24.8-4.6l0.4,1.2c4.4,0.4,9.7,1,15.2,2.1s10.9,2.7,16.2,5.6c6.5,3.5,13.3,6.2,20.5,8.1
							c-7.7-0.2-15.5,0.7-22.6,1.5c-7.1,0.9-13.4,1.8-17.4,2.4l0.9,1.1c4.8-0.8,12.7-2,21.2-2.9c8.6-1,17.5-1.6,26.7-0.2
							c5.8,1,11.8,1.4,17.7,1.2c-4.6,1.2-9.2,2.9-13.6,4.6c-4.3,1.7-8.5,3.6-12.4,5.3c-7.6,3.4-13.5,6.3-14.8,7l1.8,0.5
							c2.9-1.5,10.4-5.1,19.1-8.9c4.3-1.9,9-3.8,13.8-5.5s9.8-3,15.1-3.6c3.3-0.4,6.7-1,10.1-1.8c0.3-0.4,0.5-0.7,0.5-0.7
							s-0.2-0.1-0.7-0.4c-3.3,0.8-6.6,1.3-9.9,1.7c-5.3,0.7-10.4-0.4-14.7-2.4c-4.3-2-7.9-4.9-10.6-8.1c-5.4-6.3-7.2-13.1-7.8-15.5
							l-1-0.5c0.2,1.1,1.2,6.6,5,12.6c1.9,3,4.5,6.1,7.9,8.7s7.5,4.8,12.2,5.8c-5.9,0.1-11.7-0.2-17.4-1.2c-4.6-0.7-8.6-2.7-12-5.3
							s-5.9-5.8-7.8-9.1C278.6,743.4,277.8,736.7,277.8,732.8"/>
					</g>
				</g>
			</g>
		</g>
	</g>
</g>
<g>
	
		<linearGradient id="SVGID_31_" gradientUnits="userSpaceOnUse" x1="326.9938" y1="304.4464" x2="840.994" y2="304.4464" gradientTransform="matrix(1 0 0 -1 0 908.3028)">
		<stop  offset="0" style="stop-color:#1F2733"/>
		<stop  offset="1" style="stop-color:#4D18FF"/>
	</linearGradient>
	<path class="st15" d="M841,441.1v325.5c0,5.4-4.4,9.9-9.9,9.9H336.9c-5.4,0-9.9-4.4-9.9-9.9V441.1c0-5.4,4.4-9.9,9.9-9.9h494.2
		C836.6,431.3,841,435.7,841,441.1z"/>
	
		<linearGradient id="SVGID_32_" gradientUnits="userSpaceOnUse" x1="584.094" y1="145.5964" x2="584.094" y2="463.1964" gradientTransform="matrix(1 0 0 -1 0 908.3028)">
		<stop  offset="0.2207" style="stop-color:#A185FF"/>
		<stop  offset="1" style="stop-color:#FFFFFF"/>
	</linearGradient>
	<path class="st16" d="M827.4,455.1v297.6c0,5.5-4.5,10-10,10H350.8c-1.2,0-2.4-0.2-3.5-0.6c-3.8-1.4-6.5-5.1-6.5-9.4V455.1
		c0-5.5,4.5-10,10-10h466.6c1.3,0,2.6,0.3,3.8,0.7C824.8,447.3,827.4,450.9,827.4,455.1z"/>
	<g>
		<path class="st17" d="M827.4,455.1v14.8H340.8v-14.8c0-5.5,4.5-10,10-10h466.6C822.9,445.1,827.4,449.5,827.4,455.1z"/>
		<path class="st18" d="M406.7,457.7L406.7,457.7c0,1.8,1.5,3.3,3.3,3.3h328.7c1.8,0,3.3-1.5,3.3-3.3l0,0c0-1.8-1.5-3.3-3.3-3.3H410
			C408.2,454.4,406.7,455.8,406.7,457.7z"/>
		<g>
			<path class="st19" d="M369.2,457.7v2.4c0,0.7-0.8,1.1-1.4,0.8l-2.1-1.2l-2.1-1.2c-0.6-0.3-0.6-1.2,0-1.6l2.1-1.2l2.1-1.2
				c0.6-0.3,1.4,0.1,1.4,0.8V457.7z"/>
			<path class="st19" d="M380.2,457.7v2.4c0,0.7,0.8,1.1,1.4,0.8l2.1-1.2l2.1-1.2c0.6-0.3,0.6-1.2,0-1.6l-2.1-1.2l-2.1-1.2
				c-0.6-0.3-1.4,0.1-1.4,0.8V457.7z"/>
		</g>
		<g>
			<g>
				<circle class="st20" cx="784.3" cy="457.5" r="4.9"/>
			</g>
			<circle class="st21" cx="766.3" cy="457.5" r="4.9"/>
			<circle class="st22" cx="802.3" cy="457.5" r="4.9"/>
		</g>
	</g>
	<g>
		<g>
			<defs>
				<polygon id="SVGID_33_" points="340.7,470.9 340.7,753.1 827.4,566.3 827.4,470.9 				"/>
			</defs>
			<clipPath id="SVGID_34_">
				<use xlink:href="#SVGID_33_"  style="overflow:visible;"/>
			</clipPath>
			
				<linearGradient id="SVGID_35_" gradientUnits="userSpaceOnUse" x1="-261.3859" y1="191.1338" x2="-258.7608" y2="191.1338" gradientTransform="matrix(142.2578 142.2578 -142.2578 142.2578 64728.0547 10394.2607)">
				<stop  offset="0" style="stop-color:#D1D9E8"/>
				<stop  offset="0.5638" style="stop-color:#D1D9E8"/>
				<stop  offset="0.9922" style="stop-color:#D1D9E8"/>
				<stop  offset="1" style="stop-color:#D1D9E8"/>
			</linearGradient>
			<polygon class="st23" points="584.1,376.5 1348.2,630.8 584.1,885.1 -180.1,630.8 			"/>
		</g>
	</g>
	<g>
		<g>
			<defs>
				<polyline id="SVGID_36_" points="438.7,470.9 340.7,470.9 340.7,710.4 827.3,548.5 827.3,471 729.3,471 				"/>
			</defs>
			<clipPath id="SVGID_37_">
				<use xlink:href="#SVGID_36_"  style="overflow:visible;"/>
			</clipPath>
			
				<linearGradient id="SVGID_38_" gradientUnits="userSpaceOnUse" x1="-260.7358" y1="191.7138" x2="-258.6372" y2="191.7138" gradientTransform="matrix(134.2212 134.2212 -134.2212 134.2212 61138.1484 9680.7031)">
				<stop  offset="0" style="stop-color:#D1D9E8"/>
				<stop  offset="0.5638" style="stop-color:#D1D9E8"/>
				<stop  offset="0.9922" style="stop-color:#D1D9E8"/>
				<stop  offset="1" style="stop-color:#D1D9E8"/>
			</linearGradient>
			<polygon class="st24" points="584.1,390 1187.2,590.7 584.1,791.4 -19.1,590.7 			"/>
		</g>
	</g>
</g>
<path class="st1" d="M232.3,780c-2.2-0.7-9.1,4.3-15.4,2.2c-7.7-2.6-11.8-11.3-14.7-12.2c2.9,1,11.4-3.5,19.1-1
	C227.6,771,230.1,779.2,232.3,780"/>
<g>
	<g>
		<g>
			<g>
				<g>
					<defs>
						<path id="SVGID_39_" d="M200.8,401.2c-0.4-14,10.6-25.6,24.6-26s25.6,10.6,26,24.6s-10.6,25.6-24.6,26c-0.2,0-0.5,0-0.6,0
							C212.4,425.8,201.1,415,200.8,401.2 M236.3,318.8l-24.8,0.6c-3.2,0.1-5.8,2.7-5.7,6l0.3,10.9c0.1,2.5-1.4,4.6-3.8,5.6
							c-1.4,0.6-2.8,1.2-4.1,1.8c-2.2,1.1-4.9,0.7-6.6-1l-7.9-7.5c-2.3-2.2-6-2.2-8.2,0.2l-17,18c-2.2,2.3-2.2,6,0.2,8.2l7.9,7.5
							c1.8,1.7,2.2,4.3,1.3,6.6c-0.6,1.4-1.1,2.8-1.6,4.2c-0.8,2.3-3,3.9-5.4,4l-10.9,0.3c-3.2,0.1-5.8,2.7-5.7,6l0.6,24.8
							c0.1,3.2,2.7,5.8,6,5.7l10.9-0.3c2.5-0.1,4.6,1.4,5.6,3.8c0.6,1.4,1.2,2.8,1.8,4.1c1.1,2.2,0.7,4.9-1,6.6l-7.5,7.9
							c-2.2,2.3-2.2,6,0.2,8.2l18,17c2.3,2.2,6,2.2,8.2-0.2l7.5-7.9c1.7-1.8,4.3-2.2,6.6-1.3c1.4,0.6,2.8,1.1,4.2,1.6
							c2.3,0.8,3.9,3,4,5.4l0.3,10.9c0.1,3.2,2.7,5.8,6,5.7l24.8-0.6c3.2-0.1,5.8-2.7,5.7-6l-0.3-10.9c-0.1-2.5,1.4-4.6,3.8-5.6
							c1.4-0.6,2.8-1.2,4.1-1.8c2.2-1,4.9-0.7,6.6,1l7.9,7.5c2.3,2.2,6,2.2,8.2-0.2l17-18c2.2-2.3,2.2-6-0.2-8.2l-7.9-7.5
							c-1.8-1.7-2.2-4.3-1.3-6.6c0.6-1.4,1.1-2.8,1.6-4.2c0.8-2.3,3-3.9,5.4-4l10.9-0.3c3.2-0.1,5.8-2.7,5.7-6l-0.6-24.8
							c-0.1-3.2-2.7-5.8-6-5.7l-10.9,0.3c-2.5,0.1-4.6-1.4-5.6-3.8c-0.6-1.4-1.2-2.8-1.8-4.1c-1.1-2.2-0.7-4.9,1-6.6l7.5-7.9
							c2.2-2.3,2.2-6-0.2-8.2l-18-17c-2.3-2.2-6-2.2-8.2,0.2l-7.5,7.9c-1.7,1.8-4.3,2.2-6.6,1.3c-1.4-0.6-2.8-1.1-4.2-1.6
							c-2.3-0.8-3.9-3-4-5.4l-0.3-10.9c-0.1-3.2-2.6-5.7-5.8-5.7C236.5,318.8,236.4,318.8,236.3,318.8"/>
					</defs>
					<clipPath id="SVGID_40_">
						<use xlink:href="#SVGID_39_"  style="overflow:visible;"/>
					</clipPath>
					
						<linearGradient id="SVGID_41_" gradientUnits="userSpaceOnUse" x1="-2114.8867" y1="-5288.4536" x2="-2114.0864" y2="-5288.4536" gradientTransform="matrix(-94.9378 162.4862 -162.4862 -94.9378 -1059793.125 -158143.6875)">
						<stop  offset="0" style="stop-color:#FFFFFF"/>
						<stop  offset="2.546460e-07" style="stop-color:#FFFFFF"/>
						<stop  offset="0.816" style="stop-color:#D1DAE9"/>
						<stop  offset="1" style="stop-color:#D1DAE9"/>
					</linearGradient>
					<polygon class="st25" points="379.1,360.4 266.3,553.6 73.1,440.7 185.9,247.5 					"/>
				</g>
			</g>
		</g>
	</g>
	<g>
		<g>
			<g>
				<g>
					<defs>
						<path id="SVGID_42_" d="M193.2,401.4c-0.5-18.2,13.8-33.2,32-33.7s33.2,13.8,33.7,32s-13.8,33.2-32,33.7c-0.3,0-0.6,0-0.9,0
							C208.3,433.4,193.7,419.2,193.2,401.4 M224.6,342.4c-32.1,0.8-57.5,27.5-56.7,59.6s27.5,57.5,59.6,56.7s57.5-27.5,56.7-59.6
							c-0.8-31.6-26.7-56.7-58.1-56.7C225.6,342.4,225.1,342.4,224.6,342.4"/>
					</defs>
					<clipPath id="SVGID_43_">
						<use xlink:href="#SVGID_42_"  style="overflow:visible;"/>
					</clipPath>
					
						<linearGradient id="SVGID_44_" gradientUnits="userSpaceOnUse" x1="-2081.3062" y1="-5290.5527" x2="-2080.5059" y2="-5290.5527" gradientTransform="matrix(-8.1431 -314.312 314.312 -8.1431 1646165.75 -696722.875)">
						<stop  offset="0" style="stop-color:#FFFFFF"/>
						<stop  offset="0.2919" style="stop-color:#F6F7FB"/>
						<stop  offset="0.7751" style="stop-color:#DCE3EE"/>
						<stop  offset="0.9581" style="stop-color:#D1DAE9"/>
						<stop  offset="1" style="stop-color:#D1DAE9"/>
					</linearGradient>
					<polygon class="st26" points="167.2,462.6 164.1,342.5 285,339.3 288.1,459.4 					"/>
				</g>
			</g>
		</g>
	</g>
</g>
<rect x="601.1" y="773.7" class="st13" width="5.4" height="1.7"/>
<g>
	<path class="st27" d="M137.7,758.8c0,2.3-6.8,7.5-4.7,16.3c0.2,1,1.3,1.8,2.4,1.8H166c2,0,3.2-2.2,2-3.8c-0.8-1-2.1-2.1-4.2-2.9
		c-6.2-2.4-10.8-11.5-10.8-11.5h-15.3V758.8z"/>
	<g>
		<g>
			<g>
				<g>
					<defs>
						<path id="SVGID_45_" d="M103.8,667.5c0,0,33.5,31.7,34.3,36.8c0.7,5.2-3.4,10-2.2,27.1c1.1,17.1,1.9,27.4,1.9,27.4
							c12.4,5.8,15.4,0,15.4,0s2-37.1,2-57.9c0-7.3-15-42.9-20.7-57.6l-12.2-7.8L103.8,667.5z"/>
					</defs>
					<clipPath id="SVGID_46_">
						<use xlink:href="#SVGID_45_"  style="overflow:visible;"/>
					</clipPath>
					
						<linearGradient id="SVGID_47_" gradientUnits="userSpaceOnUse" x1="-2083.9712" y1="-5275.7573" x2="-2083.1711" y2="-5275.7573" gradientTransform="matrix(-146.3436 -136.3202 136.3202 -146.3436 414430.5625 -1055381.75)">
						<stop  offset="0" style="stop-color:#A185FF"/>
						<stop  offset="0.1611" style="stop-color:#9A7BFF"/>
						<stop  offset="0.4319" style="stop-color:#8561FF"/>
						<stop  offset="0.7769" style="stop-color:#6537FF"/>
						<stop  offset="1" style="stop-color:#4D18FF"/>
					</linearGradient>
					<polygon class="st28" points="131.3,790.1 39.4,704.6 127.7,609.9 219.4,695.5 					"/>
				</g>
			</g>
		</g>
	</g>
	<path class="st1" d="M145,703.2c-1.8-6.9-17-26.7-25.4-39.5l-10.6-5.4l-5.2,9.2c0,0,33.5,31.7,34.3,36.8c0.7,5.2-3.4,10-2.2,27.1
		c1.1,17.1,1.9,27.4,1.9,27.4c0.6,0.2,1.1,0.5,1.7,0.7C137.2,714.4,146.6,709.4,145,703.2"/>
	<path class="st27" d="M27.6,755c-3.4,4.8-3.9,9.8-4,12.2c0,0.9,0.3,1.7,1,2.3l5,4.7c1.8,1.7,4.2,2.6,6.6,2.6h15.2
		c1.8,0,3.1-1.8,2.5-3.4c-0.6-1.4-1.6-3.2-3.5-4.9c-4.5-4.1-3.8-13.6-3.8-13.6L27.6,755L27.6,755z"/>
	<g>
		<g>
			<g>
				<g>
					<defs>
						<path id="SVGID_48_" d="M58.3,695c-15,20-14.9,8.6-30.6,60c0,0,3.4,4.8,19,0c0,0,7.8-27.5,21.2-37.9
							c13.4-10.2,32.3-42.2,51.9-53.5c0,0,6.7-2.7,12.2-24.3l-46.6-18C62.2,658.7,73.4,675,58.3,695"/>
					</defs>
					<clipPath id="SVGID_49_">
						<use xlink:href="#SVGID_48_"  style="overflow:visible;"/>
					</clipPath>
					
						<linearGradient id="SVGID_50_" gradientUnits="userSpaceOnUse" x1="-2081.1348" y1="-5299.9419" x2="-2080.3347" y2="-5299.9419" gradientTransform="matrix(191.4497 -232.5462 232.5462 191.4497 1630884.125 531536.25)">
						<stop  offset="0" style="stop-color:#A185FF"/>
						<stop  offset="0.1611" style="stop-color:#9A7BFF"/>
						<stop  offset="0.4319" style="stop-color:#8561FF"/>
						<stop  offset="0.7769" style="stop-color:#6537FF"/>
						<stop  offset="1" style="stop-color:#4D18FF"/>
					</linearGradient>
					<polygon class="st29" points="-40.4,703.9 69.8,570.1 200,677.2 89.8,811 					"/>
				</g>
			</g>
		</g>
	</g>
	<g>
		<g>
			<g>
				<g>
					<defs>
						<path id="SVGID_51_" d="M244.1,500.8c-2.2,1.3-5.6,5.6-7,7.4c-0.4,0.5-0.6,1-0.7,1.7l-2.5,12.2c-3.4,3.2-23.1,10-30.4,11.5
							c-5.6,1.2-6.6,3.1-9.7,5l-0.6,16.6c0.5-0.2,1-0.6,1.5-0.8c20.6-11.1,34.3-23.3,42.3-27.5s3.8-14.5,4.2-16
							c0.2-1.2,2.8-7,3.8-9.4c0.2-0.4-0.2-0.8-0.6-0.8C244.3,500.7,244.2,500.8,244.1,500.8"/>
					</defs>
					<clipPath id="SVGID_52_">
						<use xlink:href="#SVGID_51_"  style="overflow:visible;"/>
					</clipPath>
					
						<linearGradient id="SVGID_53_" gradientUnits="userSpaceOnUse" x1="-2113.3896" y1="-5299.3965" x2="-2112.5894" y2="-5299.3965" gradientTransform="matrix(0 205.9533 -205.9533 0 -1091209 435743.8438)">
						<stop  offset="0" style="stop-color:#FBC3AC"/>
						<stop  offset="0.1484" style="stop-color:#F2B9A3"/>
						<stop  offset="0.3986" style="stop-color:#DB9F8B"/>
						<stop  offset="0.7176" style="stop-color:#B57564"/>
						<stop  offset="0.9581" style="stop-color:#945043"/>
						<stop  offset="1" style="stop-color:#945043"/>
					</linearGradient>
					<rect x="193.2" y="500.7" class="st30" width="51.9" height="54.6"/>
				</g>
			</g>
		</g>
	</g>
	<g>
		<g>
			<g>
				<g>
					<defs>
						<path id="SVGID_54_" d="M190.5,540.3c-6.2,2.3-30,6.8-35.8,12.6c-4.7,4.7-3.1,16.7,7,16.9c9.9,0.2,12.3-4,31.4-14.5l0.6-16.6
							C193,539.2,191.9,539.7,190.5,540.3"/>
					</defs>
					<clipPath id="SVGID_55_">
						<use xlink:href="#SVGID_54_"  style="overflow:visible;"/>
					</clipPath>
					
						<linearGradient id="SVGID_56_" gradientUnits="userSpaceOnUse" x1="-2111.04" y1="-5290.1602" x2="-2110.2397" y2="-5290.1602" gradientTransform="matrix(-111.1545 206.7716 -206.7716 -111.1545 -1328262.125 -151102.5469)">
						<stop  offset="0" style="stop-color:#F6D875"/>
						<stop  offset="6.328180e-02" style="stop-color:#F6D875"/>
						<stop  offset="1" style="stop-color:#FA4265"/>
					</linearGradient>
					<polygon class="st31" points="206.9,545.7 184,588.2 136.9,562.9 159.8,520.3 					"/>
				</g>
			</g>
		</g>
	</g>
	<g>
		<g>
			<g>
				<g>
					<defs>
						<path id="SVGID_57_" d="M151.4,545.7c-1-0.2,14.8,12.6,14.8,12.6l10.4-9.2l-10.3-17C166.2,532,152.4,545.8,151.4,545.7"/>
					</defs>
					<clipPath id="SVGID_58_">
						<use xlink:href="#SVGID_57_"  style="overflow:visible;"/>
					</clipPath>
					
						<linearGradient id="SVGID_59_" gradientUnits="userSpaceOnUse" x1="-2111.2378" y1="-5229.2563" x2="-2110.4375" y2="-5229.2563" gradientTransform="matrix(-61.7659 0 0 -61.7659 -130210.6875 -322444.625)">
						<stop  offset="0" style="stop-color:#FBC3AC"/>
						<stop  offset="0.1484" style="stop-color:#F2B9A3"/>
						<stop  offset="0.3986" style="stop-color:#DB9F8B"/>
						<stop  offset="0.7176" style="stop-color:#B57564"/>
						<stop  offset="0.9581" style="stop-color:#945043"/>
						<stop  offset="1" style="stop-color:#945043"/>
					</linearGradient>
					<rect x="150.4" y="532" class="st32" width="26.2" height="26.2"/>
				</g>
			</g>
		</g>
	</g>
	<path class="st33" d="M166.6,532.5h-0.8c-2.5,2.4-13.4,13.3-14.3,13.1c-0.6-0.1,4.4,4.1,8.8,7.7c6.2-3.7,1.9-10.9,3.8-9.8
		c2.1,1.2,2.4,0.4,3.6,1.6c1.1,1.2,0.1,7.6,3,9.2l6-5.3L166.6,532.5z"/>
	<path class="st13" d="M173.7,528.3c1.4-1,2.6-2.5,2.9-4.2s-0.4-3.5-1.9-4.5c-1.5-0.9-3.7-0.6-4.7,0.8c-0.2-1.2-1.6-1.8-2.9-1.9
		c-1.3-0.1-2.5,0.4-3.6,0.9c-1.1,0.6-2.2,1.2-3.4,1.5c-1,0.2-2,0.2-3,0.3s-2.1,0.2-2.9,0.8c-0.9,0.6-1.4,1.6-1.2,2.6
		c0.3,1.1,1.6,1.8,2.2,2.8c-2-0.1-4,1-5.4,2.4c-1.3,1.4-1.9,3.5-1.5,5.4c0.3,1.8,1.4,3.4,2.3,5s1.5,3.5,0.9,5.3
		c-0.3-0.4-1.4,0.1-1.5,0.6c-0.1,0.6,0.5,1,1,1.1c0.6,0.1,1.1-0.1,1.6-0.2c0.6-0.2,1-0.4,1.6-0.3c1.1,0.1,1.9,1.2,2.9,1.8
		c0.8,0.5,1.9,0.6,2.8,0.2s1.7-1,1.9-1.9c0.3-1,0.2-2.1,0.2-3.1s0.3-2.2,1.2-2.7c0.7-0.4,1.6-0.3,2.4-0.1s1.5,0.6,2.3,0.8
		c1.9,0.4,4-0.6,5.3-2c1.2-1.5,1.7-3.5,1.7-5.4C174.9,532.2,174.3,530.1,173.7,528.3"/>
	<g>
		<g>
			<g>
				<g>
					<defs>
						<path id="SVGID_60_" d="M170.2,527.5c-1.2,2,3.5,2.7,3,5c-0.5,2-3.4,1.6-2.4,6.2c0.2,0.7-0.3,1.4-1,1.5l-1,0.2l-0.6-1.5
							c-0.3-1.1-1.5-1.9-2.7-1.8c-1.2,0.1-2.3,1-2.6,2.1c-0.2,0.8,0,1.6,0.4,2.2c0.4,0.7,1,1.3,1.6,1.8c0.5,0.4,1,0.7,1.7,0.8
							c0.6,0.1,1.4-0.2,1.5-0.8c0,0,1,3.4,3,5.4c2,2.2,7.6,3.5,9.4,2.3c1.8-1.3,1.2-14.4-6.2-25c0,0-0.2,0-0.5,0
							C172.7,525.8,171,526.1,170.2,527.5"/>
					</defs>
					<clipPath id="SVGID_61_">
						<use xlink:href="#SVGID_60_"  style="overflow:visible;"/>
					</clipPath>
					
						<linearGradient id="SVGID_62_" gradientUnits="userSpaceOnUse" x1="-2111.4834" y1="-5207.0308" x2="-2110.6831" y2="-5207.0308" gradientTransform="matrix(-46.5837 -2.9019 2.9019 -46.5837 -83068.375 -248150.5)">
						<stop  offset="0" style="stop-color:#FBC3AC"/>
						<stop  offset="0.1484" style="stop-color:#F2B9A3"/>
						<stop  offset="0.3986" style="stop-color:#DB9F8B"/>
						<stop  offset="0.7176" style="stop-color:#B57564"/>
						<stop  offset="0.9581" style="stop-color:#945043"/>
						<stop  offset="1" style="stop-color:#945043"/>
					</linearGradient>
					<polygon class="st34" points="181.8,553.3 161,552 162.6,524.6 183.6,526 					"/>
				</g>
			</g>
		</g>
	</g>
	<g>
		<g>
			<g>
				<g>
					<defs>
						<path id="SVGID_63_" d="M140.5,550.9c-12.2,8.4-38.7,42.5-55.2,70.4c0,0,11,22.2,55.2,22.2c0,0,0.9-17.6,5.9-25.4
							s12.6-15.5,17.5-21.8c13.4-16.6,11.3-28.5,2.2-38.1c-6.1-6.4-10-11.3-15.6-11.3C147.8,546.9,144.6,548.1,140.5,550.9"/>
					</defs>
					<clipPath id="SVGID_64_">
						<use xlink:href="#SVGID_63_"  style="overflow:visible;"/>
					</clipPath>
					
						<linearGradient id="SVGID_65_" gradientUnits="userSpaceOnUse" x1="-2070.2776" y1="-5285.585" x2="-2069.4773" y2="-5285.585" gradientTransform="matrix(-14.8624 -165.4675 165.4675 -14.8624 843962.5 -420437.5312)">
						<stop  offset="0" style="stop-color:#F6D875"/>
						<stop  offset="6.328180e-02" style="stop-color:#F6D875"/>
						<stop  offset="1" style="stop-color:#FA4265"/>
					</linearGradient>
					<polygon class="st35" points="86.1,651.6 76.8,547.7 176.6,538.7 186,642.7 					"/>
				</g>
			</g>
		</g>
	</g>
	<g>
		<g>
			<g>
				<g>
					<defs>
						<path id="SVGID_66_" d="M153.3,566.2c-3,3,1.8,16.4-10.6,31.3c-11.5,13.9-13,16.5-19,44.7c5,0.8,10.6,1.2,16.9,1.2
							c0,0,0.9-17.6,5.9-25.4c5-7.8,12.6-15.5,17.5-21.8c13.4-16.6,11.3-28.5,2.2-38.1c-3-3.1-5.4-5.8-7.8-7.8
							C156.7,554.1,155.7,563.7,153.3,566.2"/>
					</defs>
					<clipPath id="SVGID_67_">
						<use xlink:href="#SVGID_66_"  style="overflow:visible;"/>
					</clipPath>
					
						<linearGradient id="SVGID_68_" gradientUnits="userSpaceOnUse" x1="-2107.3064" y1="-5292.4062" x2="-2106.5061" y2="-5292.4062" gradientTransform="matrix(-118.8988 283.3755 -283.3755 -118.8988 -1750093.875 -31623.8008)">
						<stop  offset="0" style="stop-color:#F6D875"/>
						<stop  offset="6.328180e-02" style="stop-color:#F6D875"/>
						<stop  offset="1" style="stop-color:#FA4265"/>
					</linearGradient>
					<polygon class="st36" points="210.6,564.2 169.4,662.6 90.4,629.5 131.7,531.2 					"/>
				</g>
			</g>
		</g>
	</g>
	<g>
		<g>
			<g>
				<g>
					<defs>
						<path id="SVGID_69_" d="M152.1,558.1c-12.6,0.8-16.8,20.3-3.4,25.8c11.1,4.6,29.8,7,47.1,6l2.1-15.8c-6.9,0.2-15-3.9-23.1-8
							c-7.8-4-15.6-8-21.8-8C152.6,558.1,152.4,558.1,152.1,558.1"/>
					</defs>
					<clipPath id="SVGID_70_">
						<use xlink:href="#SVGID_69_"  style="overflow:visible;"/>
					</clipPath>
					
						<linearGradient id="SVGID_71_" gradientUnits="userSpaceOnUse" x1="-2112.9299" y1="-5279.7666" x2="-2112.1299" y2="-5279.7666" gradientTransform="matrix(-137.083 106.8162 -106.8162 -137.083 -853370.75 -497554.1875)">
						<stop  offset="0" style="stop-color:#F6D875"/>
						<stop  offset="6.328180e-02" style="stop-color:#F6D875"/>
						<stop  offset="1" style="stop-color:#FA4265"/>
					</linearGradient>
					<polygon class="st37" points="213.8,578.6 158.9,621.4 119.3,570.6 174.2,527.8 					"/>
				</g>
			</g>
		</g>
	</g>
	<g>
		<g>
			<g>
				<g>
					<defs>
						<path id="SVGID_72_" d="M246.7,560.2c-3.1,0.1-8.1,0.8-8.1,0.8c-1,0.1-1.7,0.8-1.8,1.7l-2.1,11.1c-7,2.2-13.8,1.5-21.5,0.9
							c-4.6-0.4-9.5-0.8-15-0.6h-0.1H198l-2.1,15.8c3.5-0.2,7-0.6,10.3-1.1c15.7-2.5,27.9-6.5,33.9-9.1c2-0.9,3-3,2.5-5l-0.8-3.1
							c-1-4,1.1-8.2,5.1-9.8l1.6-0.6c0,0-0.1-1-1.6-1C246.7,560.2,246.7,560.2,246.7,560.2"/>
					</defs>
					<clipPath id="SVGID_73_">
						<use xlink:href="#SVGID_72_"  style="overflow:visible;"/>
					</clipPath>
					
						<linearGradient id="SVGID_74_" gradientUnits="userSpaceOnUse" x1="-2122.7478" y1="-5293.0244" x2="-2121.9475" y2="-5293.0244" gradientTransform="matrix(-42.6408 137.6603 -137.6603 -42.6408 -818923.25 67063.1875)">
						<stop  offset="0" style="stop-color:#FBC3AC"/>
						<stop  offset="0.1484" style="stop-color:#F2B9A3"/>
						<stop  offset="0.3986" style="stop-color:#DB9F8B"/>
						<stop  offset="0.7176" style="stop-color:#B57564"/>
						<stop  offset="0.9581" style="stop-color:#945043"/>
						<stop  offset="1" style="stop-color:#945043"/>
					</linearGradient>
					<polygon class="st38" points="256.7,562.9 243.8,604.9 187.3,587.4 200.3,545.3 					"/>
				</g>
			</g>
		</g>
	</g>
</g>
<g>
	<path class="st27" d="M398.3,792.3h-94.1c-4.6,0-8.4-3.8-8.4-8.4v-94.1c0-4.6,3.8-8.4,8.4-8.4h94.1c4.6,0,8.4,3.8,8.4,8.4v94.1
		C406.7,788.5,402.9,792.3,398.3,792.3"/>
	<path class="st39" d="M372.7,746.7c0,0-0.8,1.9-0.5,3.2c0.6,2.5,3,8.4,3.6,10.4c0.6,1.9,0.3,3.2-2.4,2.4c-2.8-0.8-8.8-3-8.8-3
		s-3.6-0.8-5.8,0l0,0c-2,0.7-4.3,1.2-6.6,1.4c-13.4,0.9-24.9-9.2-25.8-22.4c-0.9-13.4,9.2-24.9,22.4-25.8
		c13.4-0.9,24.9,9.2,25.8,22.4C374.9,739.5,374.2,743.3,372.7,746.7L372.7,746.7z"/>
</g>
<g>
	<path class="st40" d="M608.4,534.5c0,13.3-10.7,24-24,24s-24-10.7-24-24s10.7-24,24-24S608.4,521.2,608.4,534.5"/>
	<g>
		<g>
			<defs>
				<path id="SVGID_75_" d="M572.6,551.5c0.1-1.8,0.6-5.8,0.6-5.8s0-2.3-0.8-3.5l0,0c-0.7-1.2-1.4-2.4-1.8-3.8
					c-2.4-8,2.1-16.4,10-18.8c8-2.4,16.4,2.1,18.8,10c2.4,8-2.1,16.4-10,18.8c-2.4,0.7-4.8,0.8-7.1,0.4l0,0c0,0-1.2-0.3-2,0.1
					c-1.4,0.7-4.7,3-5.8,3.7c-0.4,0.3-0.8,0.4-1.1,0.4C572.9,553.1,572.6,552.6,572.6,551.5 M570.6,501.2c-2.9,1.2-5.6,2.8-8.1,4.7
					l0,0c-4.5,3.2-0.4,8.9-3.1,13.7s-9.7,4.2-10.2,9.7l0,0c-0.2,1.4-0.2,2.8-0.2,4.3c0,1.6,0.1,3.3,0.3,4.8l0,0
					c0.5,5.5,7.5,4.8,10.3,9.5s-1.2,10.5,3.3,13.6l0,0c2.4,1.7,4.9,3.2,7.7,4.4c2.9,1.3,5.1-0.2,7.5-1.8c1.8-1.1,3.6-2.3,6-2.3
					c5.5,0,8.5,6.4,13.5,4.1c2.9-1.2,5.6-2.8,8.1-4.7l0,0c4.5-3.2,0.4-8.9,3.1-13.7s9.8-4.2,10.2-9.7l0,0c0.2-1.4,0.2-2.8,0.2-4.3
					c0-1.7-0.1-3.3-0.3-4.9l0,0c-0.5-5.5-7.6-4.8-10.3-9.6c-2.8-4.7,1.2-10.5-3.3-13.7l0,0c-2.4-1.7-4.9-3.2-7.7-4.4
					c-2.9-1.3-5.1,0.2-7.5,1.8c-1.8,1.1-3.6,2.3-6,2.3c-4.6,0-7.5-4.6-11.3-4.6C572.1,500.7,571.4,500.9,570.6,501.2"/>
			</defs>
			<clipPath id="SVGID_76_">
				<use xlink:href="#SVGID_75_"  style="overflow:visible;"/>
			</clipPath>
			
				<linearGradient id="SVGID_77_" gradientUnits="userSpaceOnUse" x1="-246.9945" y1="174.5028" x2="-246.3277" y2="174.5028" gradientTransform="matrix(-70.8183 76.4625 -76.4625 -70.8183 -3542.7512 31754.2949)">
				<stop  offset="0" style="stop-color:#18425E"/>
				<stop  offset="1" style="stop-color:#282723"/>
			</linearGradient>
			<polygon class="st41" points="653.3,531.6 586.7,603.4 514.9,536.8 581.4,465 			"/>
		</g>
	</g>
</g>
<g>
	<g>
		<g>
			<g>
				<g>
					<defs>
						<path id="SVGID_78_" d="M715.7,722c2.2,8.3-0.6,14,0,27.4s3.2,35.8,3.2,35.8h7c0-9.6,5.1-23.3,6.4-36.1
							c1.8-17.8-1.6-19.8,3.8-46.5L715.5,686C715.6,686,713.4,713.7,715.7,722"/>
					</defs>
					<clipPath id="SVGID_79_">
						<use xlink:href="#SVGID_78_"  style="overflow:visible;"/>
					</clipPath>
					
						<linearGradient id="SVGID_80_" gradientUnits="userSpaceOnUse" x1="-2081.9102" y1="-5312.9175" x2="-2081.1099" y2="-5312.9175" gradientTransform="matrix(184.707 -51.1613 51.1613 184.707 657022.125 875572.5625)">
						<stop  offset="0" style="stop-color:#FBC3AC"/>
						<stop  offset="0.1484" style="stop-color:#F2B9A3"/>
						<stop  offset="0.3986" style="stop-color:#DB9F8B"/>
						<stop  offset="0.7176" style="stop-color:#B57564"/>
						<stop  offset="0.9581" style="stop-color:#945043"/>
						<stop  offset="1" style="stop-color:#945043"/>
					</linearGradient>
					<polygon class="st42" points="687.9,693 734.6,680.1 761.7,778.1 715,791.1 					"/>
				</g>
			</g>
		</g>
	</g>
	<path class="st33" d="M715.6,686c0,0-0.8,9.8-0.9,19.6l20.2,3.5c0.3-2,0.7-4.2,1.2-6.5L715.6,686z"/>
	<path class="st27" d="M718.9,785.2c0.5,9.8-4.5,10.4-3.5,17.4c0.1,0.3,0.3,0.6,0.6,0.6h17.8c0.5,0,0.8-0.4,0.6-0.9
		c-0.5-1.8-1.9-5.5-4.4-6.4c-3.2-1.2-4.2-10.7-4.2-10.7L718.9,785.2L718.9,785.2z"/>
	<g>
		<g>
			<g>
				<g>
					<defs>
						<path id="SVGID_81_" d="M688.2,686c2.5,30.4,0.3,45.4,2.2,63.1c1.3,12.8,6.4,26.5,6.4,36.1h7c0,0,2.6-22.3,3.2-35.8
							c0.6-13.4-2.2-19.1,0-27.4c2.2-8.3,3-36,3-36L688.2,686L688.2,686z"/>
					</defs>
					<clipPath id="SVGID_82_">
						<use xlink:href="#SVGID_81_"  style="overflow:visible;"/>
					</clipPath>
					
						<linearGradient id="SVGID_83_" gradientUnits="userSpaceOnUse" x1="-2074.9941" y1="-5314.9004" x2="-2074.1938" y2="-5314.9004" gradientTransform="matrix(137.5057 -64.6203 64.6203 137.5057 629429 597498.6875)">
						<stop  offset="0" style="stop-color:#FBC3AC"/>
						<stop  offset="0.1484" style="stop-color:#F2B9A3"/>
						<stop  offset="0.3986" style="stop-color:#DB9F8B"/>
						<stop  offset="0.7176" style="stop-color:#B57564"/>
						<stop  offset="0.9581" style="stop-color:#945043"/>
						<stop  offset="1" style="stop-color:#945043"/>
					</linearGradient>
					<polygon class="st43" points="650.1,703.9 706.2,677.6 748.2,767.2 692.2,793.5 					"/>
				</g>
			</g>
		</g>
	</g>
	<path class="st33" d="M688.2,686c0.5,5.6,0.7,10.6,1,15.3l20,3.4c0.6-9.4,0.9-18.7,0.9-18.7H688.2L688.2,686z"/>
	<path class="st27" d="M703.9,785.2c-0.5,9.8,4.5,10.4,3.5,17.4c-0.1,0.3-0.3,0.6-0.6,0.6H689c-0.5,0-0.8-0.4-0.6-0.9
		c0.5-1.8,1.9-5.5,4.4-6.4c3.2-1.2,4.2-10.7,4.2-10.7L703.9,785.2L703.9,785.2z"/>
	<g>
		<g>
			<g>
				<g>
					<defs>
						<path id="SVGID_84_" d="M612.4,521.9c0.6,1.2,3.3,8.5,4.4,9.8s3.6,4.1,6.9,6.7c1.2,0.9,3.1,2.7,5.5,4.8l6.4-5.4
							c-3.1-1.9-5.6-3.5-6.9-4.3c-0.7-0.4-1.2-1.1-1.5-1.9c-0.8-2.4-1.2-4.3-1.6-5.3c-0.4-1.3-10.2-8.1-11-8
							c-0.5,0.1-1.4,0.9-1.9,1.8C612.4,520.7,612.2,521.4,612.4,521.9"/>
					</defs>
					<clipPath id="SVGID_85_">
						<use xlink:href="#SVGID_84_"  style="overflow:visible;"/>
					</clipPath>
					
						<linearGradient id="SVGID_86_" gradientUnits="userSpaceOnUse" x1="-2131.0164" y1="-5320.7676" x2="-2130.2163" y2="-5320.7676" gradientTransform="matrix(105.8029 23.0937 -31.9612 106.5266 55990.9766 616538.25)">
						<stop  offset="0" style="stop-color:#FBC3AC"/>
						<stop  offset="0.1484" style="stop-color:#F2B9A3"/>
						<stop  offset="0.3986" style="stop-color:#DB9F8B"/>
						<stop  offset="0.7176" style="stop-color:#B57564"/>
						<stop  offset="0.9581" style="stop-color:#945043"/>
						<stop  offset="1" style="stop-color:#945043"/>
					</linearGradient>
					<polygon class="st44" points="610.8,516.7 641.6,523.4 635.1,545.3 604.3,538.6 					"/>
				</g>
			</g>
		</g>
	</g>
	<g>
		<g>
			<g>
				<g>
					<defs>
						<path id="SVGID_87_" d="M660,568.1c11.7,1.9,16.5,2.6,24.6,5c13.6,4.1,15.6,1.6,18.1-2.3c4.3-6.9-0.6-14.9-11.6-14.6
							c-11,0.3-18.4-0.1-26.6-1.2c-5.3-0.7-20.1-11.8-28.9-17.2l-6.4,5.4C634,547.4,652.7,567,660,568.1"/>
					</defs>
					<clipPath id="SVGID_88_">
						<use xlink:href="#SVGID_87_"  style="overflow:visible;"/>
					</clipPath>
					
						<linearGradient id="SVGID_89_" gradientUnits="userSpaceOnUse" x1="-2096.8386" y1="-5314.8857" x2="-2096.0383" y2="-5314.8857" gradientTransform="matrix(210.8036 -134.8035 120.2558 197.7518 1081802.5 768942.5625)">
						<stop  offset="0" style="stop-color:#F6D875"/>
						<stop  offset="1" style="stop-color:#FA4265"/>
					</linearGradient>
					<polygon class="st45" points="616.9,537.1 673.2,501.1 717.3,573.5 660.9,609.6 					"/>
				</g>
			</g>
		</g>
	</g>
	<g>
		<g>
			<g>
				<g>
					<defs>
						<path id="SVGID_90_" d="M713.8,540.9l2.6-13.3l-8.3-1.7C707,532.5,707.9,538.6,713.8,540.9"/>
					</defs>
					<clipPath id="SVGID_91_">
						<use xlink:href="#SVGID_90_"  style="overflow:visible;"/>
					</clipPath>
					
						<linearGradient id="SVGID_92_" gradientUnits="userSpaceOnUse" x1="-2138.3757" y1="-5411.061" x2="-2137.5754" y2="-5411.061" gradientTransform="matrix(26.3888 20.8369 -20.8369 26.3888 -55621.4648 187871.9688)">
						<stop  offset="0" style="stop-color:#FBC3AC"/>
						<stop  offset="0.1484" style="stop-color:#F2B9A3"/>
						<stop  offset="0.3986" style="stop-color:#DB9F8B"/>
						<stop  offset="0.7176" style="stop-color:#B57564"/>
						<stop  offset="0.9581" style="stop-color:#945043"/>
						<stop  offset="1" style="stop-color:#945043"/>
					</linearGradient>
					<polygon class="st46" points="710.6,521.4 723.8,531.7 712.9,545.5 699.8,535.2 					"/>
				</g>
			</g>
		</g>
	</g>
	<g>
		<g>
			<g>
				<g>
					<defs>
						<path id="SVGID_93_" d="M706.2,527.5c-0.1,2,1,3.7,2.5,3.7c1.4,0,2.6-1.6,2.6-3.6c0.1-2-1-3.7-2.5-3.7l0,0
							C707.4,523.9,706.2,525.5,706.2,527.5"/>
					</defs>
					<clipPath id="SVGID_94_">
						<use xlink:href="#SVGID_93_"  style="overflow:visible;"/>
					</clipPath>
					
						<linearGradient id="SVGID_95_" gradientUnits="userSpaceOnUse" x1="-2149.2229" y1="-5411.1504" x2="-2148.4229" y2="-5411.1504" gradientTransform="matrix(23.8582 22.0757 -22.0757 23.8582 -67475.7734 177067.75)">
						<stop  offset="0" style="stop-color:#FBC3AC"/>
						<stop  offset="0.1484" style="stop-color:#F2B9A3"/>
						<stop  offset="0.3986" style="stop-color:#DB9F8B"/>
						<stop  offset="0.7176" style="stop-color:#B57564"/>
						<stop  offset="0.9581" style="stop-color:#945043"/>
						<stop  offset="1" style="stop-color:#945043"/>
					</linearGradient>
					<polygon class="st47" points="708.5,521.3 715,527.2 708.9,533.8 702.5,527.8 					"/>
				</g>
			</g>
		</g>
	</g>
	<g>
		<g>
			<g>
				<g>
					<defs>
						<path id="SVGID_96_" d="M712.5,532.4v16.7c0,0,5,5.5,14.4,3.1v-20.6L712.5,532.4z"/>
					</defs>
					<clipPath id="SVGID_97_">
						<use xlink:href="#SVGID_96_"  style="overflow:visible;"/>
					</clipPath>
					
						<linearGradient id="SVGID_98_" gradientUnits="userSpaceOnUse" x1="-2073.8323" y1="-5358.1587" x2="-2073.032" y2="-5358.1587" gradientTransform="matrix(62.791 0 0 62.791 130912.0859 336987.3438)">
						<stop  offset="0" style="stop-color:#FBC3AC"/>
						<stop  offset="0.1484" style="stop-color:#F2B9A3"/>
						<stop  offset="0.3986" style="stop-color:#DB9F8B"/>
						<stop  offset="0.7176" style="stop-color:#B57564"/>
						<stop  offset="0.9581" style="stop-color:#945043"/>
						<stop  offset="1" style="stop-color:#945043"/>
					</linearGradient>
					<rect x="712.5" y="531.7" class="st48" width="14.4" height="23"/>
				</g>
			</g>
		</g>
	</g>
	<path class="st33" d="M712.5,541.1c2.2,2.2,3.6,5,2.6,9.9c2.4,1.3,6.3,2.6,11.8,1.2v-20.6l-14.4,0.8V541.1z"/>
	<g>
		<g>
			<g>
				<g>
					<defs>
						<path id="SVGID_99_" d="M706.6,549.5c-4.7,2-17.6,7.2-16.1,11.6c2.6,7.3,5.8,17.2,7.4,26c1.5,8.8,0.2,21.4-9.3,46.8
							c-9.5,25.4-8.5,60.9-8.5,60.9l55.9,7.8c12.2-54.1,4.6-69.7,1-80s-10.4-21.1-1.8-33.5c8.6-12.3,7.6-31,7.6-31
							c-7.8-4.7-18.9-10.1-28.6-10.1C711.7,548,709,548.4,706.6,549.5"/>
					</defs>
					<clipPath id="SVGID_100_">
						<use xlink:href="#SVGID_99_"  style="overflow:visible;"/>
					</clipPath>
					
						<linearGradient id="SVGID_101_" gradientUnits="userSpaceOnUse" x1="-2096.2275" y1="-5307.5825" x2="-2095.4272" y2="-5307.5825" gradientTransform="matrix(277.5072 143.45 -143.45 277.5072 -179042.3438 1774169)">
						<stop  offset="0.2079" style="stop-color:#F6D875"/>
						<stop  offset="0.6874" style="stop-color:#FA4265"/>
					</linearGradient>
					<polygon class="st49" points="693.7,519.8 811.4,580.6 733.8,730.8 616,670 					"/>
				</g>
			</g>
		</g>
	</g>
	<g>
		<g>
			<g>
				<g>
					<defs>
						<path id="SVGID_102_" d="M737.1,581.9c-1.1,9.4-1.1,28.9-0.6,34.8c0.6,5.9,8.7,41.8,8.7,41.8h8c0,0-4.9-38-4.9-44.5
							c0-6.6,7.4-49.3-5.4-55.7C743,558.1,738.2,572.4,737.1,581.9"/>
					</defs>
					<clipPath id="SVGID_103_">
						<use xlink:href="#SVGID_102_"  style="overflow:visible;"/>
					</clipPath>
					
						<linearGradient id="SVGID_104_" gradientUnits="userSpaceOnUse" x1="-2082.3469" y1="-5279.772" x2="-2081.5469" y2="-5279.772" gradientTransform="matrix(-127.854 -188.5722 188.5722 -127.854 730160.5 -1067055.875)">
						<stop  offset="0" style="stop-color:#F6D875"/>
						<stop  offset="1" style="stop-color:#FA4265"/>
					</linearGradient>
					<polygon class="st50" points="742.2,667.6 689.3,589.7 749.5,549 802.3,626.8 					"/>
				</g>
			</g>
		</g>
	</g>
	<g>
		<g>
			<g>
				<g>
					<defs>
						<path id="SVGID_105_" d="M745.2,658.4c-0.2,4.2,1.4,6.5,2,8c0.5,1.5-1.4,4.8-2.6,4.9c-1.1,0.2-0.4,4.2,1.3,4.2s8.1-3.1,9-4.6
							c1-1.5-1.8-12.4-1.8-12.4h-7.9V658.4z"/>
					</defs>
					<clipPath id="SVGID_106_">
						<use xlink:href="#SVGID_105_"  style="overflow:visible;"/>
					</clipPath>
					
						<linearGradient id="SVGID_107_" gradientUnits="userSpaceOnUse" x1="-2119.4275" y1="-5274.6533" x2="-2118.6272" y2="-5274.6533" gradientTransform="matrix(-107.206 75.9845 -75.9845 -107.206 -627211.3125 -403796.5312)">
						<stop  offset="0" style="stop-color:#FBC3AC"/>
						<stop  offset="0.1484" style="stop-color:#F2B9A3"/>
						<stop  offset="0.3986" style="stop-color:#DB9F8B"/>
						<stop  offset="0.7176" style="stop-color:#B57564"/>
						<stop  offset="0.9581" style="stop-color:#945043"/>
						<stop  offset="1" style="stop-color:#945043"/>
					</linearGradient>
					<polygon class="st51" points="764.2,669.7 747.8,681.4 735.5,664.1 751.9,652.5 					"/>
				</g>
			</g>
		</g>
	</g>
	<path class="st13" d="M708.9,518.3c-0.7,1.3-1.2,2.6-1.3,4.2c-0.1,1.5,0.3,3,0.8,4.6c0.6,2.4,1.4,4.8,2,7.3
		c0.3,1.3,0.7,2.6,1.5,3.6c1.4,1.7,3.6,2.3,5.7,2.9c1.5,0.4,3.1,0.8,4.6,0.4c1.8-0.5,3.3-1.9,4.6-3.4c2-2.2,4.1-4.6,5-7.4
		c0.8-2.8,0.4-5.8-0.1-8.6c-0.3-2-0.6-4.1-1.8-5.7c-1.3-1.8-3.4-2.7-5.5-3.4c-1.6-0.5-3.7-1.2-5.4-1.1
		C714.9,511.8,710.8,514.7,708.9,518.3"/>
	<g>
		<g>
			<g>
				<g>
					<g>
						<defs>
							<rect id="SVGID_108_" x="714.1" y="548" width="36.1" height="38.9"/>
						</defs>
						<clipPath id="SVGID_109_">
							<use xlink:href="#SVGID_108_"  style="overflow:visible;"/>
						</clipPath>
						<path class="st52" d="M743,558.1c-7.6-4.6-18.2-9.8-27.7-10.1c-0.3,5.8,11.6,9.2,5.3,17c-6.9,8.6-7,11.1-6.3,13.9
							c1.5,6.8,8.6,10.5,15.4,6c8.4-5.6,11.8-10.3,20.6-9.4C749.5,567.4,747.5,560.4,743,558.1"/>
					</g>
				</g>
			</g>
		</g>
	</g>
	<path class="st13" d="M724.3,529.9c0.2,2.9-2.8,4.9-4.6,7.1c-2.2,2.7-2.8,6.6-1.4,9.9c1.5,3.6,5.2,6.3,5.6,10.2
		c0.3,2.9-1.4,5.7-3.2,7.9c-1.8,2.2-4,4.4-5,7.1c-1.6,4-0.2,9.1,3.5,11.5c3.6,2.4,9.1,1.5,11.7-2c1.9-2.6,2.1-6.2,3.8-9
		c1.8-3,5.4-5,9-4.6c5.8,0.5,10.2,6.2,16,6.7c4.9,0.4,9.6-3.2,11-7.8s0-9.8-3.1-13.6s-7.7-6.1-12.5-7.2c-2.3-0.6-4.8-0.9-7-1.8
		c-2.2-1-4.2-2.9-4.5-5.3c-0.4-3.1,2.2-6.6,0.5-9.2c-1.7-2.6-5.8-2.1-8.3-3.1c-3.7-1.4-5.4-5-8.3-7.3c-2.4-1.9-5.4-1.6-6.4,1.8
		C719.8,524.8,724,526.6,724.3,529.9"/>
</g>
</svg>
